<svg width="25" height="20" viewBox="0 0 25 20" fill="none" xmlns="http://www.w3.org/2000/svg">
<path d="M22.328 0.399902H2.9C1.58 0.399902 0.512 1.4799 0.512 2.7999V7.5999C1.832 7.5999 2.9 8.6799 2.9 9.9999C2.9 11.3199 1.832 12.3999 0.5 12.3999V17.1999C0.5 18.5199 1.58 19.5999 2.9 19.5999H22.1C23.42 19.5999 24.5 18.5199 24.5 17.1999V2.7999C24.5 1.4799 23.528 0.399902 22.328 0.399902ZM19.376 11.5599L8.744 14.3919L6.752 10.9359L7.868 10.6359L9.38 11.8239L12.248 11.0559L9.368 6.0639L11.048 5.6079L15.86 10.0959L18.788 9.3159C19.4 9.1479 20.036 9.5199 20.204 10.1319C20.36 10.7439 20 11.3799 19.376 11.5599Z" fill="#96172E"/>
</svg>
