<svg width="18" height="18" viewBox="0 0 18 18" fill="none" xmlns="http://www.w3.org/2000/svg">
<circle cx="9" cy="9" r="9" fill="#96172E"/>
<path d="M9 6.84375C8.57353 6.84375 8.15665 6.97021 7.80205 7.20714C7.44746 7.44408 7.17109 7.78084 7.00788 8.17484C6.84468 8.56884 6.80198 9.00239 6.88518 9.42066C6.96838 9.83893 7.17374 10.2231 7.4753 10.5247C7.77686 10.8263 8.16107 11.0316 8.57934 11.1148C8.99761 11.198 9.43116 11.1553 9.82516 10.9921C10.2192 10.8289 10.5559 10.5525 10.7929 10.1979C11.0298 9.84335 11.1562 9.42647 11.1562 9C11.1562 8.42813 10.9291 7.87968 10.5247 7.4753C10.1203 7.07093 9.57187 6.84375 9 6.84375V6.84375ZM9 10.0312C8.79604 10.0312 8.59666 9.97077 8.42707 9.85745C8.25748 9.74414 8.1253 9.58308 8.04725 9.39464C7.9692 9.20621 7.94877 8.99886 7.98857 8.79881C8.02836 8.59877 8.12657 8.41502 8.2708 8.2708C8.41502 8.12657 8.59877 8.02836 8.79881 7.98857C8.99886 7.94877 9.20621 7.9692 9.39464 8.04725C9.58308 8.1253 9.74414 8.25748 9.85745 8.42707C9.97077 8.59666 10.0312 8.79604 10.0312 9C10.03 9.27312 9.92097 9.53471 9.72784 9.72784C9.53471 9.92097 9.27312 10.03 9 10.0312ZM11.25 3.9375H6.75C6.00408 3.9375 5.28871 4.23382 4.76126 4.76126C4.23382 5.28871 3.9375 6.00408 3.9375 6.75V11.25C3.9375 11.9959 4.23382 12.7113 4.76126 13.2387C5.28871 13.7662 6.00408 14.0625 6.75 14.0625H11.25C11.9959 14.0625 12.7113 13.7662 13.2387 13.2387C13.7662 12.7113 14.0625 11.9959 14.0625 11.25V6.75C14.0625 6.00408 13.7662 5.28871 13.2387 4.76126C12.7113 4.23382 11.9959 3.9375 11.25 3.9375V3.9375ZM12.9375 11.25C12.9375 11.6976 12.7597 12.1268 12.4432 12.4432C12.1268 12.7597 11.6976 12.9375 11.25 12.9375H6.75C6.30245 12.9375 5.87322 12.7597 5.55676 12.4432C5.24029 12.1268 5.0625 11.6976 5.0625 11.25V6.75C5.0625 6.30245 5.24029 5.87322 5.55676 5.55676C5.87322 5.24029 6.30245 5.0625 6.75 5.0625H11.25C11.6976 5.0625 12.1268 5.24029 12.4432 5.55676C12.7597 5.87322 12.9375 6.30245 12.9375 6.75V11.25ZM12.1875 6.5625C12.1875 6.71084 12.1435 6.85584 12.0611 6.97918C11.9787 7.10251 11.8616 7.19864 11.7245 7.25541C11.5875 7.31218 11.4367 7.32703 11.2912 7.29809C11.1457 7.26915 11.0121 7.19772 10.9072 7.09283C10.8023 6.98794 10.7308 6.8543 10.7019 6.70882C10.673 6.56333 10.6878 6.41253 10.7446 6.27549C10.8014 6.13844 10.8975 6.02131 11.0208 5.9389C11.1442 5.85649 11.2892 5.8125 11.4375 5.8125C11.6364 5.8125 11.8272 5.89152 11.9678 6.03217C12.1085 6.17282 12.1875 6.36359 12.1875 6.5625Z" fill="white"/>
</svg>
