<svg width="203" height="40" viewBox="0 0 203 40" fill="none" xmlns="http://www.w3.org/2000/svg">
<path d="M197.647 21.4145C197.221 20.0154 195.822 18.9812 190.894 18.6162C191.685 19.5287 192.537 20.3804 193.388 21.232H195.883C196.917 21.1712 197.403 21.2929 197.647 21.4145Z" fill="white"/>
<path d="M178.728 7.17947C178.484 12.5328 181.343 17.8861 190.773 18.6161H190.894C186.088 13.0195 182.864 5.90198 181.587 0.00116935C181.587 -0.0596637 178.91 2.25199 178.728 7.17947Z" fill="white"/>
<path d="M193.388 21.1709C189.678 21.1709 183.229 21.1709 183.229 21.1709C183.351 21.4751 183.838 21.7184 184.872 21.7792C191.198 22.1442 192.111 27.1325 201.175 27.1325C201.966 27.1325 202.453 27.0717 203 27.0109C199.411 25.9159 196.187 23.8476 193.388 21.1709Z" fill="white"/>
<path d="M105.485 21.9009L103.66 16.8518H95.2646L93.4397 21.9009H91.7363L98.6105 3.8335H100.435L107.37 21.9009H105.485V21.9009ZM99.4621 5.41516L95.7513 15.4526H103.112L99.4621 5.41516Z" fill="white"/>
<path d="M110.412 5.78037C109.682 5.78037 109.074 5.23287 109.074 4.50288C109.074 3.77288 109.621 3.16455 110.351 3.16455C111.081 3.16455 111.629 3.71205 111.629 4.44205C111.69 5.17204 111.142 5.78037 110.412 5.78037ZM109.621 8.94369H111.264V21.9011H109.621V8.94369Z" fill="white"/>
<path d="M122.153 10.4646C122.153 10.4646 121.849 10.2821 121.301 10.2821C120.754 10.2821 120.024 10.4038 119.294 10.9513C118.564 11.4988 117.59 12.6546 117.347 14.2363V21.9013H115.765V8.94381H117.225L117.347 11.6205C118.077 10.0388 119.537 8.63965 121.423 8.63965C121.97 8.63965 122.396 8.76132 122.396 8.76132L122.153 10.4646Z" fill="white"/>
<path d="M126.654 3.2251H125.012V21.84H126.654V3.2251Z" fill="white"/>
<path d="M132.008 5.78037C131.278 5.78037 130.669 5.23287 130.669 4.50288C130.669 3.77288 131.217 3.16455 131.947 3.16455C132.677 3.16455 133.224 3.71205 133.224 4.44205C133.285 5.17204 132.738 5.78037 132.008 5.78037ZM131.156 8.94369H132.799V21.9011H131.156V8.94369Z" fill="white"/>
<path d="M145.999 21.901V13.9927C145.999 11.7419 145.33 10.221 143.079 10.221C140.829 10.221 139.308 12.7152 139.004 14.1143V21.9618H137.361V8.94353H138.821L138.943 11.4985C139.673 10.0994 141.133 8.7002 143.444 8.7002C145.695 8.7002 147.581 9.97769 147.581 13.3843V21.901H145.999V21.901Z" fill="white"/>
<path d="M152.569 15.6352C152.569 18.616 154.09 20.7451 156.828 20.7451C159.565 20.7451 160.964 19.2243 160.964 19.2243L161.755 20.3193C161.755 20.3193 160.113 22.1443 156.706 22.1443C153.299 22.1443 150.866 19.5893 150.866 15.4527C150.866 11.2552 153.421 8.7002 156.706 8.7002C159.991 8.7002 162.059 11.2552 162.059 14.7835V15.6352H152.569V15.6352ZM156.645 10.0385C153.847 10.0385 152.752 12.5327 152.569 14.3577H160.417C160.356 12.2285 159.383 10.0385 156.645 10.0385Z" fill="white"/>
<path d="M168.569 22.1443C165.709 22.1443 164.067 20.2585 163.763 19.8326L164.797 18.8593C165.344 19.5893 166.744 20.806 168.569 20.806C170.393 20.806 171.549 19.9543 171.549 18.616C171.549 17.2168 170.211 16.7302 169.481 16.426C168.751 16.1218 167.413 15.7568 166.865 15.5135C166.257 15.2702 164.371 14.4185 164.371 12.2893C164.371 10.1602 166.196 8.7002 168.751 8.7002C171.306 8.7002 172.827 10.221 172.948 10.4035L172.097 11.5594C171.549 10.951 170.272 10.0385 168.69 10.0385C167.109 10.0385 165.831 10.7077 165.831 12.1068C165.831 13.506 167.169 13.9318 167.96 14.236C168.812 14.5402 169.664 14.7835 170.393 15.0877C171.123 15.3918 173.07 16.2435 173.07 18.3727C173.131 20.5018 171.367 22.1443 168.569 22.1443Z" fill="white"/>
<path d="M32.9715 21.7795H29.3215V8.45703H32.9715V20.502V21.7795Z" fill="white"/>
<path d="M31.1466 6.99692C29.9907 6.99692 29.0782 6.08442 29.0782 4.98942C29.0782 3.89443 29.9907 2.98193 31.1466 2.98193C32.3024 2.98193 33.2149 3.89443 33.2149 4.98942C33.2149 6.08442 32.3024 6.99692 31.1466 6.99692Z" fill="white"/>
<path d="M68.9239 22.0836C66.8555 22.0836 65.213 21.3536 63.9964 20.0153C62.9014 18.7986 62.3539 17.0953 62.3539 15.2095C62.3539 13.2628 63.023 11.4378 64.3005 10.1603C65.578 8.88283 67.3422 8.15283 69.228 8.15283C70.7489 8.15283 71.9655 8.457 73.1213 9.12616L72.9997 12.107C72.0872 11.377 70.8705 11.012 69.6539 11.012C67.5247 11.012 66.0039 12.7153 66.0039 15.027C66.0039 16.9128 66.9772 19.1028 69.6539 19.1028C70.9313 19.1028 72.0263 18.5553 72.8172 18.1295L73.7905 20.6844C72.7563 21.3536 70.8097 22.0836 68.9239 22.0836Z" fill="white"/>
<path d="M17.2158 21.7792H13.3833L11.6191 17.2167H5.35331L3.64999 21.7792H0L7.1783 3.2251H9.79413L17.2158 21.7792ZM6.50914 14.2359H10.4633L9.06413 10.2817C8.8208 9.6734 8.6383 9.12591 8.51663 8.57841C8.39497 9.06507 8.21247 9.55174 7.96913 10.2209L6.50914 14.2359Z" fill="white"/>
<path d="M28.2266 8.45703H24.6374L21.4133 17.0953L18.25 8.45703H14.6L19.4666 20.3195C19.8316 21.232 20.3791 21.7795 21.4741 21.7795H22.6908L28.2266 8.45703Z" fill="white"/>
<path d="M39.1765 22.0838C36.5607 22.0838 34.7357 20.3197 34.7357 17.7647C34.7357 15.088 36.804 13.4455 40.3324 13.3238L42.5223 13.263V13.0805C42.5223 11.3772 41.2449 11.073 40.1499 11.073C39.0549 11.073 38.0207 11.3772 36.804 12.1072L35.5874 9.73469C37.0474 8.76136 38.8724 8.21387 40.8799 8.21387C44.469 8.21387 46.2332 9.79553 46.2332 13.0805V19.1638C46.2332 20.3197 46.3548 21.1105 46.5373 21.8405H44.469C43.5565 21.8405 43.2523 21.4755 42.9482 20.7455C41.8532 21.658 40.6365 22.0838 39.1765 22.0838ZM42.5223 15.818L40.819 15.8788C38.629 15.9397 38.3857 16.8522 38.3857 17.4605C38.3857 18.4947 39.1157 19.103 40.3324 19.103C41.184 19.103 41.914 18.8597 42.5223 18.373V15.818Z" fill="white"/>
<path d="M78.9004 22.0838C76.2846 22.0838 74.4596 20.3197 74.4596 17.7647C74.4596 15.088 76.5279 13.4455 80.0562 13.3238L82.1854 13.263V13.0805C82.1854 11.3772 80.9079 11.073 79.7521 11.073C78.6571 11.073 77.6229 11.3772 76.4063 12.1072L75.1896 9.73469C76.6496 8.76136 78.4746 8.21387 80.4821 8.21387C84.0712 8.21387 85.8354 9.79553 85.8354 13.0805V19.1638C85.8354 20.3197 85.957 21.1105 86.1395 21.8405H84.1321C83.2196 21.8405 82.9154 21.4755 82.6112 20.7455C81.5771 21.658 80.3604 22.0838 78.9004 22.0838ZM82.2462 15.818L80.5429 15.8788C78.3529 15.9397 78.1096 16.8522 78.1096 17.4605C78.1096 18.4947 78.8396 19.103 80.0562 19.103C80.9079 19.103 81.6379 18.8597 82.2462 18.373V15.818V15.818Z" fill="white"/>
<path d="M60.7722 21.7794H57.1222V13.9928C57.1222 12.1678 56.5747 11.3162 55.3581 11.3162C54.3847 11.3162 53.3506 11.742 52.1947 12.5936V21.7794H48.6056V8.457H50.0048C51.0389 8.457 51.7081 8.88283 52.0122 9.67366V9.73449C53.5331 8.6395 54.9322 8.15283 56.5139 8.15283C58.5822 8.15283 60.7722 9.43033 60.7722 12.9586V21.7794V21.7794Z" fill="white"/>
<path d="M111.507 25.7944C112.724 25.7944 113.941 26.1594 115.036 26.9503L114.488 27.8019C113.636 27.1936 112.663 26.8286 111.69 26.8286C109.317 26.8286 107.736 28.5928 107.736 31.1477C107.736 33.7027 109.317 35.4669 111.69 35.4669C112.663 35.4669 113.636 35.1019 114.488 34.4936L115.036 35.3452C113.941 36.0752 112.724 36.5011 111.507 36.5011C108.466 36.5011 106.397 34.3111 106.397 31.0869C106.397 27.8628 108.466 25.7944 111.507 25.7944Z" fill="white"/>
<path d="M119.537 28.6533C121.788 28.6533 123.37 30.2958 123.37 32.6075C123.37 34.9191 121.788 36.5616 119.537 36.5616C117.286 36.5616 115.705 34.9191 115.705 32.6075C115.705 30.2958 117.286 28.6533 119.537 28.6533ZM119.537 35.5883C121.058 35.5883 122.092 34.3716 122.092 32.6075C122.092 30.8433 120.997 29.6266 119.537 29.6266C118.016 29.6266 116.982 30.8433 116.982 32.6075C116.982 34.3716 118.016 35.5883 119.537 35.5883Z" fill="white"/>
<path d="M124.647 28.836H125.62L125.803 30.2352C126.168 29.2619 127.08 28.7144 128.115 28.7144C128.419 28.7144 128.723 28.7752 129.088 28.836L128.966 29.8702C128.662 29.8094 128.358 29.7485 128.054 29.7485C126.776 29.7485 125.864 30.7827 125.864 32.3035V36.3793H124.647V28.836V28.836Z" fill="white"/>
<path d="M130 28.8358H130.974L131.156 30.1133C131.704 29.2008 132.616 28.6533 133.772 28.6533C135.719 28.6533 137.179 30.2958 137.179 32.6075C137.179 34.9191 135.78 36.5616 133.772 36.5616C132.677 36.5616 131.825 36.075 131.278 35.2233V39.6033H130.061V28.8358H130ZM133.407 29.6875C132.069 29.6875 131.156 30.6608 131.156 31.9991V33.2158C131.156 34.615 132.069 35.5275 133.407 35.5275C134.806 35.5275 135.84 34.3108 135.84 32.6075C135.84 30.9041 134.806 29.6875 133.407 29.6875Z" fill="white"/>
<path d="M141.68 28.6533C143.931 28.6533 145.513 30.2958 145.513 32.6075C145.513 34.9191 143.931 36.5616 141.68 36.5616C139.43 36.5616 137.848 34.9191 137.848 32.6075C137.848 30.2958 139.43 28.6533 141.68 28.6533ZM141.68 35.5883C143.201 35.5883 144.235 34.3716 144.235 32.6075C144.235 30.8433 143.14 29.6266 141.68 29.6266C140.16 29.6266 139.125 30.8433 139.125 32.6075C139.125 34.3716 140.16 35.5883 141.68 35.5883Z" fill="white"/>
<path d="M146.851 28.836H147.825L148.007 30.2352C148.372 29.2619 149.285 28.7144 150.319 28.7144C150.623 28.7144 150.927 28.7752 151.292 28.836L151.17 29.8702C150.866 29.8094 150.562 29.7485 150.258 29.7485C148.98 29.7485 148.068 30.7827 148.068 32.3035V36.3793H146.851V28.836V28.836Z" fill="white"/>
<path d="M155.064 31.8166C155.611 31.8166 156.159 31.8775 156.767 32.06V31.2691C156.767 30.2958 156.037 29.6266 154.942 29.6266C154.151 29.6266 153.3 29.8091 152.448 30.1741L152.083 29.2617C153.117 28.8358 154.09 28.6533 155.064 28.6533C156.767 28.6533 157.923 29.6875 157.923 31.2691V34.9191C157.923 35.345 158.166 35.5883 158.592 35.5883C158.714 35.5883 158.896 35.5275 159.018 35.5275L159.139 36.44C158.896 36.5008 158.592 36.5008 158.349 36.5008C157.558 36.5008 157.01 36.0141 156.889 35.2233C156.28 36.0141 155.307 36.5008 154.273 36.5008C152.813 36.5008 151.657 35.5275 151.657 34.25C151.596 32.7291 152.935 31.8166 155.064 31.8166ZM154.516 35.6491C155.794 35.6491 156.706 34.7366 156.706 33.3983V32.79C156.159 32.6683 155.672 32.6075 155.185 32.6075C153.725 32.6075 152.813 33.2158 152.813 34.25C152.813 35.0408 153.543 35.6491 154.516 35.6491Z" fill="white"/>
<path d="M161.816 28.8361H164.189V29.8094H161.816V34.2502C161.816 35.041 162.364 35.5277 163.094 35.5277C163.398 35.5277 163.763 35.4669 164.189 35.3452L164.371 36.3185C163.824 36.4402 163.337 36.501 162.85 36.501C161.512 36.501 160.599 35.5885 160.599 34.3111V29.7486H159.018V28.7752H160.599V26.5244H161.816V28.8361V28.8361Z" fill="white"/>
<path d="M168.569 28.6533C170.576 28.6533 171.975 30.235 171.975 32.4858C171.975 32.6683 171.975 32.79 171.975 32.9116H166.135C166.257 34.4933 167.352 35.5883 168.934 35.5883C169.603 35.5883 170.394 35.4058 171.185 34.98L171.55 35.8316C170.576 36.3183 169.603 36.5616 168.751 36.5616C166.44 36.5616 164.858 34.9191 164.858 32.6075C164.919 30.2958 166.44 28.6533 168.569 28.6533ZM166.135 32.1208H170.759C170.698 30.6608 169.785 29.6266 168.569 29.6266C167.23 29.6266 166.257 30.6 166.135 32.1208Z" fill="white"/>
</svg>
