<svg width="57" height="23" viewBox="0 0 57 23" fill="none" xmlns="http://www.w3.org/2000/svg">
<path d="M15.8334 9.94439H15.1945V8.66661C15.1945 6.90328 13.7634 5.47217 12 5.47217C10.2367 5.47217 8.80558 6.90328 8.80558 8.66661V9.94439H8.16669C7.46392 9.94439 6.88892 10.5194 6.88892 11.2222V17.6111C6.88892 18.3138 7.46392 18.8888 8.16669 18.8888H15.8334C16.5361 18.8888 17.1111 18.3138 17.1111 17.6111V11.2222C17.1111 10.5194 16.5361 9.94439 15.8334 9.94439ZM12 15.6944C11.2972 15.6944 10.7222 15.1194 10.7222 14.4166C10.7222 13.7138 11.2972 13.1388 12 13.1388C12.7028 13.1388 13.2778 13.7138 13.2778 14.4166C13.2778 15.1194 12.7028 15.6944 12 15.6944ZM13.9806 9.94439H10.0195V8.66661C10.0195 7.57411 10.9075 6.68606 12 6.68606C13.0925 6.68606 13.9806 7.57411 13.9806 8.66661V9.94439Z" fill="#9B9B9B"/>
<path fill-rule="evenodd" clip-rule="evenodd" d="M12 21.6471C17.6041 21.6471 22.1471 17.1041 22.1471 11.5C22.1471 5.89593 17.6041 1.35294 12 1.35294C6.39593 1.35294 1.85294 5.89593 1.85294 11.5C1.85294 17.1041 6.39593 21.6471 12 21.6471ZM12 23C18.3513 23 23.5 17.8513 23.5 11.5C23.5 5.14873 18.3513 0 12 0C5.64873 0 0.5 5.14873 0.5 11.5C0.5 17.8513 5.64873 23 12 23Z" fill="#9B9B9B"/>
<path d="M34.1895 5.6765C34.1535 5.7395 34.1145 5.786 34.0725 5.816C34.0335 5.843 33.984 5.8565 33.924 5.8565C33.861 5.8565 33.792 5.834 33.717 5.789C33.645 5.741 33.558 5.6885 33.456 5.6315C33.354 5.5745 33.234 5.5235 33.096 5.4785C32.961 5.4305 32.8005 5.4065 32.6145 5.4065C32.4465 5.4065 32.2995 5.4275 32.1735 5.4695C32.0475 5.5085 31.941 5.564 31.854 5.636C31.77 5.708 31.707 5.795 31.665 5.897C31.623 5.996 31.602 6.1055 31.602 6.2255C31.602 6.3785 31.644 6.506 31.728 6.608C31.815 6.71 31.929 6.797 32.07 6.869C32.211 6.941 32.3715 7.0055 32.5515 7.0625C32.7315 7.1195 32.916 7.181 33.105 7.247C33.294 7.31 33.4785 7.385 33.6585 7.472C33.8385 7.556 33.999 7.664 34.14 7.796C34.281 7.925 34.3935 8.084 34.4775 8.273C34.5645 8.462 34.608 8.6915 34.608 8.9615C34.608 9.2555 34.557 9.5315 34.455 9.7895C34.356 10.0445 34.209 10.268 34.014 10.46C33.822 10.649 33.5865 10.799 33.3075 10.91C33.0285 11.018 32.709 11.072 32.349 11.072C32.142 11.072 31.938 11.051 31.737 11.009C31.536 10.97 31.3425 10.913 31.1565 10.838C30.9735 10.763 30.801 10.673 30.639 10.568C30.477 10.463 30.333 10.346 30.207 10.217L30.5625 9.6365C30.5925 9.5945 30.6315 9.56 30.6795 9.533C30.7275 9.503 30.7785 9.488 30.8325 9.488C30.9075 9.488 30.9885 9.5195 31.0755 9.5825C31.1625 9.6425 31.266 9.71 31.386 9.785C31.506 9.86 31.6455 9.929 31.8045 9.992C31.9665 10.052 32.16 10.082 32.385 10.082C32.73 10.082 32.997 10.001 33.186 9.839C33.375 9.674 33.4695 9.4385 33.4695 9.1325C33.4695 8.9615 33.426 8.822 33.339 8.714C33.255 8.606 33.1425 8.516 33.0015 8.444C32.8605 8.369 32.7 8.306 32.52 8.255C32.34 8.204 32.157 8.1485 31.971 8.0885C31.785 8.0285 31.602 7.9565 31.422 7.8725C31.242 7.7885 31.0815 7.679 30.9405 7.544C30.7995 7.409 30.6855 7.241 30.5985 7.04C30.5145 6.836 30.4725 6.5855 30.4725 6.2885C30.4725 6.0515 30.519 5.8205 30.612 5.5955C30.708 5.3705 30.846 5.171 31.026 4.997C31.206 4.823 31.428 4.6835 31.692 4.5785C31.956 4.4735 32.259 4.421 32.601 4.421C32.985 4.421 33.339 4.481 33.663 4.601C33.987 4.721 34.263 4.889 34.491 5.105L34.1895 5.6765ZM36.6229 6.383V11H35.5069V6.383H36.6229ZM36.7759 5.0375C36.7759 5.1335 36.7564 5.2235 36.7174 5.3075C36.6784 5.3915 36.6259 5.465 36.5599 5.528C36.4969 5.591 36.4219 5.642 36.3349 5.681C36.2479 5.717 36.1549 5.735 36.0559 5.735C35.9599 5.735 35.8684 5.717 35.7814 5.681C35.6974 5.642 35.6239 5.591 35.5609 5.528C35.4979 5.465 35.4469 5.3915 35.4079 5.3075C35.3719 5.2235 35.3539 5.1335 35.3539 5.0375C35.3539 4.9385 35.3719 4.8455 35.4079 4.7585C35.4469 4.6715 35.4979 4.5965 35.5609 4.5335C35.6239 4.4705 35.6974 4.421 35.7814 4.385C35.8684 4.346 35.9599 4.3265 36.0559 4.3265C36.1549 4.3265 36.2479 4.346 36.3349 4.385C36.4219 4.421 36.4969 4.4705 36.5599 4.5335C36.6259 4.5965 36.6784 4.6715 36.7174 4.7585C36.7564 4.8455 36.7759 4.9385 36.7759 5.0375ZM39.295 11.072C38.893 11.072 38.584 10.9595 38.368 10.7345C38.155 10.5065 38.0485 10.193 38.0485 9.794V7.2155H37.576C37.516 7.2155 37.465 7.196 37.423 7.157C37.381 7.118 37.36 7.0595 37.36 6.9815V6.5405L38.1025 6.419L38.3365 5.159C38.3515 5.099 38.38 5.0525 38.422 5.0195C38.464 4.9865 38.518 4.97 38.584 4.97H39.16V6.4235H40.393V7.2155H39.16V9.7175C39.16 9.8615 39.1945 9.974 39.2635 10.055C39.3355 10.136 39.433 10.1765 39.556 10.1765C39.625 10.1765 39.682 10.169 39.727 10.154C39.775 10.136 39.8155 10.118 39.8485 10.1C39.8845 10.082 39.916 10.0655 39.943 10.0505C39.97 10.0325 39.997 10.0235 40.024 10.0235C40.057 10.0235 40.084 10.0325 40.105 10.0505C40.126 10.0655 40.1485 10.0895 40.1725 10.1225L40.5055 10.6625C40.3435 10.7975 40.1575 10.8995 39.9475 10.9685C39.7375 11.0375 39.52 11.072 39.295 11.072ZM42.2567 6.383V11H41.1407V6.383H42.2567ZM42.4097 5.0375C42.4097 5.1335 42.3902 5.2235 42.3512 5.3075C42.3122 5.3915 42.2597 5.465 42.1937 5.528C42.1307 5.591 42.0557 5.642 41.9687 5.681C41.8817 5.717 41.7887 5.735 41.6897 5.735C41.5937 5.735 41.5022 5.717 41.4152 5.681C41.3312 5.642 41.2577 5.591 41.1947 5.528C41.1317 5.465 41.0807 5.3915 41.0417 5.3075C41.0057 5.2235 40.9877 5.1335 40.9877 5.0375C40.9877 4.9385 41.0057 4.8455 41.0417 4.7585C41.0807 4.6715 41.1317 4.5965 41.1947 4.5335C41.2577 4.4705 41.3312 4.421 41.4152 4.385C41.5022 4.346 41.5937 4.3265 41.6897 4.3265C41.7887 4.3265 41.8817 4.346 41.9687 4.385C42.0557 4.421 42.1307 4.4705 42.1937 4.5335C42.2597 4.5965 42.3122 4.6715 42.3512 4.7585C42.3902 4.8455 42.4097 4.9385 42.4097 5.0375ZM45.4328 6.311C45.7748 6.311 46.0853 6.3665 46.3643 6.4775C46.6463 6.5885 46.8863 6.746 47.0843 6.95C47.2853 7.154 47.4398 7.403 47.5478 7.697C47.6558 7.991 47.7098 8.3195 47.7098 8.6825C47.7098 9.0485 47.6558 9.3785 47.5478 9.6725C47.4398 9.9665 47.2853 10.217 47.0843 10.424C46.8863 10.631 46.6463 10.79 46.3643 10.901C46.0853 11.012 45.7748 11.0675 45.4328 11.0675C45.0878 11.0675 44.7743 11.012 44.4923 10.901C44.2103 10.79 43.9688 10.631 43.7678 10.424C43.5698 10.217 43.4153 9.9665 43.3043 9.6725C43.1963 9.3785 43.1423 9.0485 43.1423 8.6825C43.1423 8.3195 43.1963 7.991 43.3043 7.697C43.4153 7.403 43.5698 7.154 43.7678 6.95C43.9688 6.746 44.2103 6.5885 44.4923 6.4775C44.7743 6.3665 45.0878 6.311 45.4328 6.311ZM45.4328 10.2125C45.8168 10.2125 46.1003 10.0835 46.2833 9.8255C46.4693 9.5675 46.5623 9.1895 46.5623 8.6915C46.5623 8.1935 46.4693 7.814 46.2833 7.553C46.1003 7.292 45.8168 7.1615 45.4328 7.1615C45.0428 7.1615 44.7533 7.2935 44.5643 7.5575C44.3783 7.8185 44.2853 8.1965 44.2853 8.6915C44.2853 9.1865 44.3783 9.5645 44.5643 9.8255C44.7533 10.0835 45.0428 10.2125 45.4328 10.2125ZM33.366 17.283C33.336 17.331 33.3045 17.3655 33.2715 17.3865C33.2385 17.4045 33.1965 17.4135 33.1455 17.4135C33.0915 17.4135 33.033 17.3985 32.97 17.3685C32.91 17.3385 32.8395 17.3055 32.7585 17.2695C32.6775 17.2305 32.5845 17.196 32.4795 17.166C32.3775 17.136 32.256 17.121 32.115 17.121C31.896 17.121 31.7235 17.1675 31.5975 17.2605C31.4745 17.3535 31.413 17.475 31.413 17.625C31.413 17.724 31.4445 17.808 31.5075 17.877C31.5735 17.943 31.659 18.0015 31.764 18.0525C31.872 18.1035 31.9935 18.15 32.1285 18.192C32.2635 18.231 32.4 18.2745 32.538 18.3225C32.679 18.3705 32.817 18.426 32.952 18.489C33.087 18.549 33.207 18.627 33.312 18.723C33.42 18.816 33.5055 18.9285 33.5685 19.0605C33.6345 19.1925 33.6675 19.3515 33.6675 19.5375C33.6675 19.7595 33.627 19.965 33.546 20.154C33.468 20.34 33.351 20.502 33.195 20.64C33.039 20.775 32.8455 20.8815 32.6145 20.9595C32.3865 21.0345 32.1225 21.072 31.8225 21.072C31.6635 21.072 31.5075 21.057 31.3545 21.027C31.2045 21 31.059 20.961 30.918 20.91C30.78 20.859 30.651 20.799 30.531 20.73C30.414 20.661 30.3105 20.586 30.2205 20.505L30.477 20.082C30.51 20.031 30.549 19.992 30.594 19.965C30.639 19.938 30.696 19.9245 30.765 19.9245C30.834 19.9245 30.8985 19.944 30.9585 19.983C31.0215 20.022 31.0935 20.064 31.1745 20.109C31.2555 20.154 31.35 20.196 31.458 20.235C31.569 20.274 31.7085 20.2935 31.8765 20.2935C32.0085 20.2935 32.121 20.2785 32.214 20.2485C32.31 20.2155 32.388 20.1735 32.448 20.1225C32.511 20.0715 32.556 20.013 32.583 19.947C32.613 19.878 32.628 19.8075 32.628 19.7355C32.628 19.6275 32.595 19.539 32.529 19.47C32.466 19.401 32.3805 19.341 32.2725 19.29C32.1675 19.239 32.046 19.194 31.908 19.155C31.773 19.113 31.6335 19.068 31.4895 19.02C31.3485 18.972 31.209 18.9165 31.071 18.8535C30.936 18.7875 30.8145 18.705 30.7065 18.606C30.6015 18.507 30.516 18.3855 30.45 18.2415C30.387 18.0975 30.3555 17.9235 30.3555 17.7195C30.3555 17.5305 30.393 17.3505 30.468 17.1795C30.543 17.0085 30.6525 16.86 30.7965 16.734C30.9435 16.605 31.125 16.503 31.341 16.428C31.56 16.35 31.812 16.311 32.097 16.311C32.415 16.311 32.7045 16.3635 32.9655 16.4685C33.2265 16.5735 33.444 16.7115 33.618 16.8825L33.366 17.283ZM37.4786 18.1605C37.4786 18.0165 37.4576 17.8815 37.4156 17.7555C37.3766 17.6265 37.3166 17.514 37.2356 17.418C37.1546 17.322 37.0511 17.247 36.9251 17.193C36.8021 17.136 36.6581 17.1075 36.4931 17.1075C36.1721 17.1075 35.9186 17.199 35.7326 17.382C35.5496 17.565 35.4326 17.8245 35.3816 18.1605H37.4786ZM35.3591 18.831C35.3771 19.068 35.4191 19.2735 35.4851 19.4475C35.5511 19.6185 35.6381 19.761 35.7461 19.875C35.8541 19.986 35.9816 20.07 36.1286 20.127C36.2786 20.181 36.4436 20.208 36.6236 20.208C36.8036 20.208 36.9581 20.187 37.0871 20.145C37.2191 20.103 37.3331 20.0565 37.4291 20.0055C37.5281 19.9545 37.6136 19.908 37.6856 19.866C37.7606 19.824 37.8326 19.803 37.9016 19.803C37.9946 19.803 38.0636 19.8375 38.1086 19.9065L38.4281 20.3115C38.3051 20.4555 38.1671 20.577 38.0141 20.676C37.8611 20.772 37.7006 20.85 37.5326 20.91C37.3676 20.967 37.1981 21.0075 37.0241 21.0315C36.8531 21.0555 36.6866 21.0675 36.5246 21.0675C36.2036 21.0675 35.9051 21.015 35.6291 20.91C35.3531 20.802 35.1131 20.6445 34.9091 20.4375C34.7051 20.2275 34.5446 19.9695 34.4276 19.6635C34.3106 19.3545 34.2521 18.9975 34.2521 18.5925C34.2521 18.2775 34.3031 17.982 34.4051 17.706C34.5071 17.427 34.6526 17.1855 34.8416 16.9815C35.0336 16.7745 35.2661 16.611 35.5391 16.491C35.8151 16.371 36.1256 16.311 36.4706 16.311C36.7616 16.311 37.0301 16.3575 37.2761 16.4505C37.5221 16.5435 37.7336 16.68 37.9106 16.86C38.0876 17.037 38.2256 17.256 38.3246 17.517C38.4266 17.775 38.4776 18.0705 38.4776 18.4035C38.4776 18.5715 38.4596 18.6855 38.4236 18.7455C38.3876 18.8025 38.3186 18.831 38.2166 18.831H35.3591ZM40.9992 18.579C41.1372 18.579 41.2572 18.561 41.3592 18.525C41.4612 18.486 41.5452 18.4335 41.6112 18.3675C41.6802 18.3015 41.7312 18.222 41.7642 18.129C41.8002 18.036 41.8182 17.934 41.8182 17.823C41.8182 17.595 41.7492 17.415 41.6112 17.283C41.4762 17.148 41.2722 17.0805 40.9992 17.0805C40.7262 17.0805 40.5207 17.148 40.3827 17.283C40.2477 17.415 40.1802 17.595 40.1802 17.823C40.1802 17.931 40.1967 18.0315 40.2297 18.1245C40.2657 18.2175 40.3167 18.2985 40.3827 18.3675C40.4517 18.4335 40.5372 18.486 40.6392 18.525C40.7442 18.561 40.8642 18.579 40.9992 18.579ZM42.2547 21.207C42.2547 21.117 42.2277 21.0435 42.1737 20.9865C42.1197 20.9295 42.0462 20.886 41.9532 20.856C41.8602 20.823 41.7507 20.799 41.6247 20.784C41.5017 20.769 41.3697 20.7585 41.2287 20.7525C41.0907 20.7435 40.9467 20.736 40.7967 20.73C40.6497 20.724 40.5057 20.712 40.3647 20.694C40.2417 20.763 40.1412 20.844 40.0632 20.937C39.9882 21.03 39.9507 21.138 39.9507 21.261C39.9507 21.342 39.9702 21.417 40.0092 21.486C40.0512 21.558 40.1157 21.6195 40.2027 21.6705C40.2927 21.7215 40.4082 21.7605 40.5492 21.7875C40.6902 21.8175 40.8627 21.8325 41.0667 21.8325C41.2737 21.8325 41.4522 21.816 41.6022 21.783C41.7522 21.753 41.8752 21.7095 41.9712 21.6525C42.0702 21.5985 42.1422 21.5325 42.1872 21.4545C42.2322 21.3795 42.2547 21.297 42.2547 21.207ZM43.3617 16.5405V16.9545C43.3617 17.0865 43.2822 17.1675 43.1232 17.1975L42.7092 17.274C42.7722 17.433 42.8037 17.607 42.8037 17.796C42.8037 18.024 42.7572 18.231 42.6642 18.417C42.5742 18.6 42.4482 18.756 42.2862 18.885C42.1242 19.014 41.9322 19.1145 41.7102 19.1865C41.4912 19.2555 41.2542 19.29 40.9992 19.29C40.9092 19.29 40.8222 19.2855 40.7382 19.2765C40.6542 19.2675 40.5717 19.2555 40.4907 19.2405C40.3467 19.3275 40.2747 19.425 40.2747 19.533C40.2747 19.626 40.3167 19.695 40.4007 19.74C40.4877 19.782 40.6017 19.812 40.7427 19.83C40.8837 19.848 41.0442 19.86 41.2242 19.866C41.4042 19.869 41.5887 19.878 41.7777 19.893C41.9667 19.908 42.1512 19.935 42.3312 19.974C42.5112 20.01 42.6717 20.0685 42.8127 20.1495C42.9537 20.2305 43.0662 20.3415 43.1502 20.4825C43.2372 20.6205 43.2807 20.799 43.2807 21.018C43.2807 21.222 43.2297 21.42 43.1277 21.612C43.0287 21.804 42.8832 21.975 42.6912 22.125C42.5022 22.275 42.2682 22.395 41.9892 22.485C41.7132 22.578 41.3982 22.6245 41.0442 22.6245C40.6962 22.6245 40.3932 22.59 40.1352 22.521C39.8772 22.455 39.6627 22.365 39.4917 22.251C39.3207 22.14 39.1932 22.011 39.1092 21.864C39.0252 21.717 38.9832 21.564 38.9832 21.405C38.9832 21.189 39.0477 21.009 39.1767 20.865C39.3087 20.718 39.4887 20.601 39.7167 20.514C39.5937 20.451 39.4962 20.367 39.4242 20.262C39.3522 20.157 39.3162 20.019 39.3162 19.848C39.3162 19.779 39.3282 19.7085 39.3522 19.6365C39.3792 19.5615 39.4167 19.488 39.4647 19.416C39.5157 19.344 39.5787 19.2765 39.6537 19.2135C39.7287 19.1475 39.8172 19.089 39.9192 19.038C39.6852 18.912 39.5007 18.744 39.3657 18.534C39.2337 18.324 39.1677 18.078 39.1677 17.796C39.1677 17.568 39.2127 17.3625 39.3027 17.1795C39.3957 16.9935 39.5232 16.836 39.6852 16.707C39.8502 16.575 40.0437 16.4745 40.2657 16.4055C40.4907 16.3365 40.7352 16.302 40.9992 16.302C41.1972 16.302 41.3832 16.323 41.5572 16.365C41.7312 16.404 41.8902 16.4625 42.0342 16.5405H43.3617ZM48.0446 16.383V21H47.3651C47.2181 21 47.1251 20.9325 47.0861 20.7975L47.0096 20.4285C46.8206 20.6205 46.6121 20.7765 46.3841 20.8965C46.1561 21.0135 45.8876 21.072 45.5786 21.072C45.3266 21.072 45.1031 21.03 44.9081 20.946C44.7161 20.859 44.5541 20.7375 44.4221 20.5815C44.2901 20.4255 44.1896 20.241 44.1206 20.028C44.0546 19.812 44.0216 19.575 44.0216 19.317V16.383H45.1331V19.317C45.1331 19.599 45.1976 19.818 45.3266 19.974C45.4586 20.127 45.6551 20.2035 45.9161 20.2035C46.1081 20.2035 46.2881 20.1615 46.4561 20.0775C46.6241 19.9905 46.7831 19.872 46.9331 19.722V16.383H48.0446ZM50.1952 17.184C50.3392 16.908 50.5102 16.692 50.7082 16.536C50.9062 16.377 51.1402 16.2975 51.4102 16.2975C51.6232 16.2975 51.7942 16.344 51.9232 16.437L51.8512 17.2695C51.8362 17.3235 51.8137 17.3625 51.7837 17.3865C51.7567 17.4075 51.7192 17.418 51.6712 17.418C51.6262 17.418 51.5587 17.4105 51.4687 17.3955C51.3817 17.3805 51.2962 17.373 51.2122 17.373C51.0892 17.373 50.9797 17.391 50.8837 17.427C50.7877 17.463 50.7007 17.5155 50.6227 17.5845C50.5477 17.6505 50.4802 17.7315 50.4202 17.8275C50.3632 17.9235 50.3092 18.033 50.2582 18.156V21H49.1467V16.383H49.7992C49.9132 16.383 49.9927 16.404 50.0377 16.446C50.0827 16.485 50.1127 16.557 50.1277 16.662L50.1952 17.184ZM54.4152 16.311C54.7572 16.311 55.0677 16.3665 55.3467 16.4775C55.6287 16.5885 55.8687 16.746 56.0667 16.95C56.2677 17.154 56.4222 17.403 56.5302 17.697C56.6382 17.991 56.6922 18.3195 56.6922 18.6825C56.6922 19.0485 56.6382 19.3785 56.5302 19.6725C56.4222 19.9665 56.2677 20.217 56.0667 20.424C55.8687 20.631 55.6287 20.79 55.3467 20.901C55.0677 21.012 54.7572 21.0675 54.4152 21.0675C54.0702 21.0675 53.7567 21.012 53.4747 20.901C53.1927 20.79 52.9512 20.631 52.7502 20.424C52.5522 20.217 52.3977 19.9665 52.2867 19.6725C52.1787 19.3785 52.1247 19.0485 52.1247 18.6825C52.1247 18.3195 52.1787 17.991 52.2867 17.697C52.3977 17.403 52.5522 17.154 52.7502 16.95C52.9512 16.746 53.1927 16.5885 53.4747 16.4775C53.7567 16.3665 54.0702 16.311 54.4152 16.311ZM54.4152 20.2125C54.7992 20.2125 55.0827 20.0835 55.2657 19.8255C55.4517 19.5675 55.5447 19.1895 55.5447 18.6915C55.5447 18.1935 55.4517 17.814 55.2657 17.553C55.0827 17.292 54.7992 17.1615 54.4152 17.1615C54.0252 17.1615 53.7357 17.2935 53.5467 17.5575C53.3607 17.8185 53.2677 18.1965 53.2677 18.6915C53.2677 19.1865 53.3607 19.5645 53.5467 19.8255C53.7357 20.0835 54.0252 20.2125 54.4152 20.2125Z" fill="#9B9B9B"/>
</svg>
