<svg width="25" height="14" viewBox="0 0 25 14" fill="none" xmlns="http://www.w3.org/2000/svg">
<path d="M1.59091 11.3637H23.4091V13.5455H1.59091V11.3637ZM2.84545 6.9455L3.77273 5.33095L4.7 6.9455L6.11818 6.12732L5.19091 4.51277H7.04545V2.87641H5.19091L6.11818 1.27277L4.7 0.45459L3.77273 2.05823L2.84545 0.45459L1.42727 1.27277L2.35455 2.87641H0.5V4.51277H2.35455L1.42727 6.12732L2.84545 6.9455ZM10.1545 6.12732L11.5727 6.9455L12.5 5.33095L13.4273 6.9455L14.8455 6.12732L13.9182 4.51277H15.7727V2.87641H13.9182L14.8455 1.27277L13.4273 0.45459L12.5 2.05823L11.5727 0.45459L10.1545 1.27277L11.0818 2.87641H9.22727V4.51277H11.0818L10.1545 6.12732ZM24.5 2.87641H22.6455L23.5727 1.27277L22.1545 0.45459L21.2273 2.05823L20.3 0.45459L18.8818 1.27277L19.8091 2.87641H17.9545V4.51277H19.8091L18.8818 6.12732L20.3 6.9455L21.2273 5.33095L22.1545 6.9455L23.5727 6.12732L22.6455 4.51277H24.5V2.87641Z" fill="#96172E"/>
</svg>
