<svg width="18" height="18" viewBox="0 0 18 18" fill="none" xmlns="http://www.w3.org/2000/svg">
<path d="M9 1.125C4.65117 1.125 1.125 4.65117 1.125 9C1.125 13.3488 4.65117 16.875 9 16.875C13.3488 16.875 16.875 13.3488 16.875 9C16.875 4.65117 13.3488 1.125 9 1.125ZM12.7846 7.06113C12.7898 7.14375 12.7898 7.22988 12.7898 7.31426C12.7898 9.89473 10.8246 12.8672 7.2334 12.8672C6.12598 12.8672 5.09941 12.5455 4.23457 11.9918C4.39277 12.0094 4.54395 12.0164 4.70566 12.0164C5.61973 12.0164 6.45996 11.707 7.12969 11.1832C6.27188 11.1656 5.55117 10.6031 5.30508 9.82969C5.60566 9.87363 5.87637 9.87363 6.18574 9.79453C5.74405 9.7048 5.34705 9.46491 5.06218 9.11563C4.77731 8.76636 4.62214 8.32923 4.62305 7.87852V7.85391C4.88145 7.9998 5.18555 8.08945 5.50371 8.10176C5.23625 7.92351 5.0169 7.68201 4.86512 7.39869C4.71334 7.11536 4.63381 6.79896 4.63359 6.47754C4.63359 6.11367 4.72852 5.78145 4.89902 5.49316C5.38928 6.09669 6.00105 6.59029 6.69457 6.94189C7.38808 7.2935 8.14783 7.49523 8.92441 7.53398C8.64844 6.20684 9.63984 5.13281 10.8316 5.13281C11.3941 5.13281 11.9004 5.36836 12.2572 5.74805C12.6984 5.66543 13.1203 5.5002 13.4965 5.27871C13.3506 5.73047 13.0447 6.11191 12.6387 6.35273C13.0324 6.31055 13.4121 6.20156 13.7637 6.04863C13.4982 6.43887 13.166 6.78516 12.7846 7.06113V7.06113Z" fill="#96172E"/>
</svg>
