<svg width="18" height="18" viewBox="0 0 18 18" fill="none" xmlns="http://www.w3.org/2000/svg">
<path d="M10.4427 8.84969L8.42129 7.90648C8.24489 7.82458 8.09998 7.91638 8.09998 8.11168V9.88829C8.09998 10.0836 8.24489 10.1754 8.42129 10.0935L10.4418 9.15028C10.6191 9.06748 10.6191 8.93249 10.4427 8.84969ZM8.99998 0.359985C4.22819 0.359985 0.359985 4.22819 0.359985 8.99998C0.359985 13.7718 4.22819 17.64 8.99998 17.64C13.7718 17.64 17.64 13.7718 17.64 8.99998C17.64 4.22819 13.7718 0.359985 8.99998 0.359985ZM8.99998 12.51C4.57739 12.51 4.49998 12.1113 4.49998 8.99998C4.49998 5.88869 4.57739 5.48998 8.99998 5.48998C13.4226 5.48998 13.5 5.88869 13.5 8.99998C13.5 12.1113 13.4226 12.51 8.99998 12.51Z" fill="#96172E"/>
</svg>
